<svg width="20" height="19" viewBox="0 0 20 19" fill="none" xmlns="http://www.w3.org/2000/svg">
<path fill-rule="evenodd" clip-rule="evenodd" d="M19 2.95799C19.009 3.56499 18.933 4.32599 18.866 4.88099C18.8448 5.06434 18.8114 5.24608 18.766 5.42499C19.622 7.01 20 8.917 20 11C20 13.468 18.813 15.501 16.964 16.887C15.132 18.26 12.66 19 10 19C7.34 19 4.868 18.26 3.036 16.887C1.187 15.501 0 13.468 0 11C0 8.917 0.377 7.01 1.235 5.42499C1.18965 5.24608 1.15625 5.06434 1.135 4.88099C1.066 4.32599 0.99 3.56499 1 2.95799C1.01 2.27499 1.1 1.59199 1.199 0.913987C1.245 0.599987 1.317 0.304987 1.658 0.118987C2.006 -0.0710132 2.372 -0.00101318 2.733 0.101987C3.951 0.446987 5.093 0.931987 6.167 1.51199C7.3 1.17299 8.578 0.999987 10 0.999987C11.422 0.999987 12.7 1.17299 13.832 1.51299C14.9211 0.917597 16.0728 0.444707 17.266 0.102987C17.627 -1.32546e-05 17.994 -0.0710132 18.341 0.118987C18.681 0.304987 18.754 0.599987 18.801 0.913987C18.899 1.59199 18.99 2.27499 19 2.95799ZM18 11C18 9.313 17.612 6.99999 15.5 6.99999C14.548 6.99999 13.647 7.25 12.747 7.5C11.848 7.75 10.95 8 10 8C9.05 8 8.152 7.75 7.253 7.5C6.353 7.25 5.453 6.99999 4.5 6.99999C2.394 6.99999 2 9.32 2 11C2 12.764 2.827 14.231 4.236 15.287C5.66 16.356 7.69 17 10 17C12.31 17 14.339 16.355 15.764 15.287C17.173 14.23 18 12.764 18 11ZM8 11.5C8 12.88 7.328 14 6.5 14C5.672 14 5 12.88 5 11.5C5 10.12 5.672 9 6.5 9C7.328 9 8 10.12 8 11.5ZM13.5 14C14.328 14 15 12.88 15 11.5C15 10.12 14.328 9 13.5 9C12.672 9 12 10.12 12 11.5C12 12.88 12.672 14 13.5 14Z" fill="white"/>
</svg>
